# xmcd CD database file
#
# Track frame offsets:
#	150
#	10253
#	33097
#	67702
#	98440
#	125814
#	161417
#	195602
#
# Disc length: 3309 seconds
#
# Revision: 0
# Processed by: cddbd v1.5.2PL0 Copyright (c) Steve Scherf et al.
# Submitted via: CDex 1.70beta2
#
DISCID=560ceb08
DTITLE=Pulcinella - clou d'estrade
DYEAR=1900
DGENRE=Jazz
TTITLE0=o mais
TTITLE1=les loups sortent de la bergerie
TTITLE2=vie et mort du platane de Prugnanes
TTITLE3=sale gosse
TTITLE4=hippocampéléphantocamélos
TTITLE5=je suis dans la dèche
TTITLE6=amiel
TTITLE7=rev'là Raymond
EXTD=
EXTT0=
EXTT1=
EXTT2=
EXTT3=
EXTT4=
EXTT5=
EXTT6=
EXTT7=
PLAYORDER=
